# xmcd
#
# Track frame offsets:
#	150
#	15683
#	32521
#	44770
#	58567
#	70371
#	83410
#	99878
#	110799
#	123244
#	140354
#	154065
#	177727
#	195490
#
# Disc length: 2870 seconds
#
# Revision: 0
# Processed by: cddbd v1.5.1PL0 Copyright (c) Steve Scherf et al.
# Submitted via: dBpowerAMP V4.0
#
DISCID=ba0b340e
DTITLE=Hacienda Brothers - S/T
DYEAR=1900
DGENRE=Country
TTITLE0=She's Gone
TTITLE1=Mental Revenge
TTITLE2=Leavin' on My Mind
TTITLE3=I'm So Proud
TTITLE4=South of Lonesome
TTITLE5=Looking for Loneliness
TTITLE6=Walkin' on my Dreams
TTITLE7=Railed
TTITLE8=No Time to Waste
TTITLE9=The Years That Got Away
TTITLE10=Seven Little Numbers
TTITLE11=I've Got a Secret
TTITLE12=Turn to Grey
TTITLE13=Saguaro
EXTD=
EXTT0=
EXTT1=
EXTT2=
EXTT3=
EXTT4=
EXTT5=
EXTT6=
EXTT7=
EXTT8=
EXTT9=
EXTT10=
EXTT11=
EXTT12=
EXTT13=
PLAYORDER=
